<?xml version="1.0" standalone="no"?>
<!DOCTYPE svg PUBLIC "-//W3C//DTD SVG 1.1//EN" "http://www.w3.org/Graphics/SVG/1.1/DTD/svg11.dtd">
<svg width="100%" height="100%" viewBox="0 0 13496 1024" version="1.1" xmlns="http://www.w3.org/2000/svg" xmlns:xlink="http://www.w3.org/1999/xlink" xml:space="preserve" style="fill-rule:evenodd;clip-rule:evenodd;stroke-linejoin:round;stroke-miterlimit:1.41421;">
    <g>
        <path id="path5809" d="M696.702,259.19L681.958,259.19L681.958,231.11L696.702,231.11L696.702,259.19ZM696.702,342.268L681.958,342.268L681.958,314.185L696.702,314.185L696.702,342.268ZM676.567,375.035C668.869,376.142 641.387,379.82 615.908,379.82C595.182,379.82 579.358,378.075 565.397,376.535L532.692,373.91L532.863,376.765L532.863,384.942C529.754,386.109 521.967,388.654 512.772,388.654C503.717,388.654 496.397,386.159 493.449,384.979L493.449,373.919L460.879,376.544C446.919,378.071 431.099,379.819 410.394,379.819C384.915,379.819 357.415,376.139 349.701,375.029L349.701,204.309C351.551,203.799 356.349,202.514 359.841,201.579L359.831,356.109L360.984,356.894C361.529,357.254 374.469,365.719 407.746,365.719C424.484,365.719 437.319,362.979 449.766,360.319C460.407,358.049 470.456,355.899 481.782,355.899C503.446,355.899 510.221,367.269 510.476,367.732L510.75,367.595L515.734,367.595L516.041,367.732C516.324,367.27 523.094,355.9 544.754,355.9C556.053,355.9 566.129,358.053 576.793,360.32C589.223,362.98 602.084,365.72 618.824,365.72C652.084,365.72 665.049,357.255 665.584,356.895L666.748,356.11L666.748,201.65C670.199,202.585 674.779,203.813 676.568,204.31L676.568,375.035L676.567,375.035ZM344.317,259.19L329.584,259.19L329.584,231.11L344.317,231.11L344.317,259.19ZM344.317,342.268L329.584,342.268L329.584,314.185L344.317,314.185L344.317,342.268ZM365.218,182C371.188,184.6 384.173,188.8 407.743,188.8C424.493,188.8 437.316,186.048 449.763,183.4C460.403,181.12 470.468,178.993 481.803,178.993C503.473,178.993 510.218,190.326 510.497,190.813L510.553,190.813L510.553,359.95C505.788,355.8 496.883,350.732 481.778,350.732C469.898,350.732 459.54,352.942 448.608,355.277C436.463,357.855 423.893,360.54 407.744,360.54C380.129,360.54 367.937,354.72 365.219,353.23L365.219,182.045L365.219,182L365.218,182ZM515.933,190.743L516.023,190.86C516.29,190.35 523.068,178.993 544.745,178.993C556.054,178.993 566.13,181.145 576.794,183.41C589.214,186.07 602.075,188.81 618.8,188.81C642.384,188.81 655.395,184.625 661.362,182L661.362,353.243C658.645,354.735 646.421,360.553 618.827,360.553C602.667,360.553 590.105,357.868 577.939,355.29C566.986,352.955 556.634,350.745 544.755,350.745C529.614,350.745 520.7,355.845 515.935,360.01L515.935,190.803L515.933,190.743ZM910.798,149.465C878.462,159.32 844.077,164.65 808.398,164.65C682.468,164.65 572.523,98.485 513.143,0C453.778,98.485 343.843,164.65 217.95,164.65C182.295,164.65 147.955,159.33 115.665,149.51C107.21,245.658 113.375,340.495 132.495,431.695L893.465,431.695C913.368,336.555 918.743,241.725 910.798,149.465" style="fill:rgb(35,31,32);fill-rule:nonzero;"/>
        <path id="path5813" d="M325.232,841.35C379.118,909.46 442.092,971.02 512.958,1024C583.103,971.71 646.462,910.56 701.052,841.8L512.853,658.845L325.232,841.35Z" style="fill:rgb(243,109,29);fill-rule:nonzero;"/>
        <path id="path5817" d="M237.463,710.49L512.853,445.89L788.748,711.245C834.561,629.695 869.35,540.58 890.699,445.207C891.703,440.697 892.506,436.22 893.465,431.687L132.495,431.687C153.078,529.845 188.732,623.75 237.463,710.49" style="fill:rgb(243,109,29);fill-rule:nonzero;"/>
        <path id="path5821" d="M237.463,710.49C263.173,756.269 292.526,800.019 325.233,841.348L512.853,658.849L701.052,841.8C733.542,800.915 762.898,757.3 788.747,711.245L512.853,445.89L237.463,710.49Z" style="fill:rgb(243,109,29);fill-rule:nonzero;"/>
        <path id="path5825" d="M237.463,710.49C263.173,756.269 292.526,800.019 325.233,841.348L512.853,658.849L701.052,841.8C733.542,800.915 762.898,757.3 788.747,711.245L512.853,445.89L237.463,710.49Z" style="fill:rgb(35,31,32);fill-rule:nonzero;"/>
        <rect id="path5827" x="681.958" y="314.185" width="14.744" height="28.083" style="fill:white;fill-rule:nonzero;"/>
        <path id="path5831" d="M666.753,356.112L665.583,356.887C665.052,357.257 652.087,365.724 618.823,365.724C602.073,365.724 589.22,362.969 576.792,360.321C566.128,358.054 556.052,355.904 544.753,355.904C523.093,355.904 516.327,367.272 516.038,367.734L515.736,367.597L510.753,367.597L510.462,367.734C510.208,367.272 503.441,355.904 481.776,355.904C470.458,355.904 460.408,358.054 449.761,360.321C437.316,362.969 424.481,365.724 407.746,365.724C374.471,365.724 361.516,357.256 360.971,356.887L359.826,356.112L359.841,201.582C356.346,202.52 351.546,203.802 349.696,204.299L349.696,375.034C357.411,376.144 384.916,379.821 410.389,379.821C431.094,379.821 446.914,378.074 460.874,376.549L493.444,373.924L493.444,384.979C496.392,386.159 503.714,388.659 512.757,388.659C521.962,388.659 529.747,386.114 532.857,384.944L532.857,376.769L532.687,373.912L565.392,376.537C579.353,378.075 595.177,379.822 615.903,379.822C641.383,379.822 668.864,376.145 676.563,375.035L676.563,204.3C674.774,203.815 670.194,202.588 666.749,201.65L666.749,356.112L666.753,356.112Z" style="fill:white;fill-rule:nonzero;"/>
        <rect id="path5833" x="681.958" y="231.11" width="14.744" height="28.08" style="fill:white;fill-rule:nonzero;"/>
        <rect id="path5835" x="329.583" y="231.11" width="14.733" height="28.08" style="fill:white;fill-rule:nonzero;"/>
        <path id="path5839" d="M448.607,355.235C459.539,352.898 469.897,350.688 481.777,350.688C496.882,350.688 505.789,355.755 510.552,359.905L510.552,190.768L510.496,190.815C510.217,190.317 503.472,178.995 481.802,178.995C470.467,178.995 460.402,181.122 449.762,183.4C437.317,186.05 424.492,188.803 407.742,188.803C384.172,188.803 371.185,184.603 365.217,182L365.217,353.188C367.937,354.678 380.127,360.496 407.742,360.496C423.893,360.495 436.463,357.812 448.607,355.235" style="fill:white;fill-rule:nonzero;"/>
        <rect id="path5841" x="329.583" y="314.185" width="14.733" height="28.083" style="fill:white;fill-rule:nonzero;"/>
        <path id="path5845" d="M577.937,355.235C590.109,357.813 602.659,360.495 618.825,360.495C646.425,360.495 658.648,354.678 661.363,353.187L661.363,181.942C655.398,184.557 642.374,188.755 618.802,188.755C602.077,188.755 589.218,186.015 576.792,183.355C566.132,181.087 556.058,178.935 544.731,178.935C523.056,178.935 516.292,190.295 516.026,190.803L515.922,190.745L515.922,359.953C520.697,355.778 529.617,350.688 544.746,350.688C556.632,350.687 566.972,352.897 577.937,355.235" style="fill:white;fill-rule:nonzero;"/>
        <path id="path5849" d="M417.923,214.215C415.288,214.388 413.527,215.753 412.698,217.523L401.641,241.545C401.641,241.545 401.106,241.88 400.746,241.88C400.376,241.88 399.971,241.545 399.756,240.78C399.451,239.935 398.101,236.57 395.161,230.048L391.636,222.218C390.326,219.303 389.331,217.418 388.986,216.841C387.691,214.676 386.096,214.504 384.328,214.216C384.098,213.926 384.098,213.706 384.098,213.474C384.098,213.256 384.098,213.081 384.268,212.791L386.098,212.791C388.153,212.791 389.923,212.896 391.438,212.896C393.268,212.896 396.343,212.733 398.403,212.733L399.575,212.733C399.813,212.791 399.875,213.186 399.875,213.371C399.875,213.474 399.875,213.926 399.76,214.168C398.335,214.283 395.34,214.215 395.34,216.041C395.34,216.436 395.41,217.128 395.64,217.651L402.87,234.456L408.983,220.506C409.693,218.911 409.75,217.524 409.75,216.841C409.75,215.244 408.64,214.573 405.585,214.216C405.528,213.996 405.398,213.776 405.398,213.521C405.398,213.301 405.528,212.896 405.585,212.733L406.465,212.733C407.805,212.733 409.16,212.896 412.225,212.896C412.76,212.896 414.885,212.791 415.88,212.791L417.995,212.791C418.113,213.011 418.228,213.186 418.228,213.406C418.228,213.59 418.113,214.03 417.923,214.215" style="fill:rgb(35,31,32);fill-rule:nonzero;"/>
        <path id="path5853" d="M448.838,241.075C439.998,241.075 435.178,240.855 433.998,240.855C433.061,240.855 430.873,240.785 429.763,240.785C428.598,240.785 425.703,240.96 422.638,240.96L420.893,240.913C420.768,240.67 420.708,240.508 420.708,240.288C420.708,240.058 420.708,239.701 420.823,239.468C423.181,239.306 424.873,238.901 425.243,238.566C425.753,237.988 426.053,236.786 426.178,234.229C426.223,232.912 426.293,231.477 426.293,229.984C426.293,227.821 426.223,225.187 426.223,222.004C426.223,219.819 426.178,218.511 426.178,217.599C426.108,214.429 424.593,214.429 421.288,214.104C421.173,213.816 421.123,213.526 421.123,213.364C421.123,213.192 421.227,212.742 421.401,212.614L422.998,212.614C424.106,212.614 426.998,212.682 432.526,212.682C437.651,212.682 442.533,212.799 443.651,212.799C444.301,212.799 446.301,212.857 446.663,212.857C447.368,212.857 447.658,212.902 447.658,213.482L448.012,219.935C447.658,220.107 447.542,220.155 447.172,220.155C446.952,220.155 446.767,220.155 446.532,220.108C444.592,216.905 443.65,216.268 442.127,215.193C441.582,214.8 440.832,214.568 439.592,214.431C439.167,214.431 438.182,214.396 435.662,214.396C433.645,214.396 432.597,214.431 432.35,214.501C432.005,214.501 432.05,214.431 431.935,215.599C431.88,216.269 431.822,217.531 431.822,221.314L431.822,224.957L432.827,224.957C434.122,224.957 435.417,224.852 436.122,224.622C437.302,224.332 438.472,223.544 439.132,222.62C439.352,222.275 439.652,220.735 439.767,220.227C439.997,220.109 440.357,220.042 440.717,220.042C440.992,220.042 441.292,220.109 441.467,220.272C441.422,221.429 441.177,223.592 441.177,226.335C441.177,227.71 441.362,230.752 441.362,231.99C441.062,232.163 440.949,232.233 440.534,232.233C440.289,232.233 439.954,232.163 439.714,232.118C439.409,229.711 439.064,228.058 436.949,227.201C435.767,226.739 434.829,226.636 433.709,226.636C433.119,226.636 432.354,226.671 431.764,226.74L431.764,234.168C431.764,235.89 431.884,236.908 432.124,237.475C432.353,237.995 433.062,238.965 433.884,239.083C434.299,239.14 435.049,239.255 436.599,239.255L440.834,239.255C441.884,239.255 443.424,239.14 443.954,238.805C444.999,238.168 447.704,235.3 448.652,232.742C449.007,232.57 449.254,232.57 449.552,232.57C449.772,232.57 450.073,232.628 450.362,232.802L450.362,240.295C450.363,240.96 449.888,241.075 448.838,241.075" style="fill:rgb(35,31,32);fill-rule:nonzero;"/>
        <path id="path5857" d="M483.963,221.645C483.728,221.645 483.486,221.585 483.138,221.527C482.493,219.815 481.673,218.22 480.953,217.339C479.798,215.919 478.618,214.969 475.553,214.611C474.908,214.564 473.253,214.564 472.733,214.564L472.665,227.066C472.665,229.008 472.665,231.358 472.733,235.649C472.778,238.957 474.318,238.957 477.843,239.432C478.018,239.754 478.073,239.987 478.073,240.229C478.073,240.449 478.016,240.669 477.886,240.912L476.616,240.912C474.546,240.912 470.496,240.785 469.246,240.785C468.371,240.785 463.891,240.96 461.786,240.96C461.591,240.67 461.546,240.67 461.546,240.23C461.546,239.987 461.591,239.755 461.721,239.478C466.367,239.13 466.831,238.275 467.016,236.84C467.131,235.94 467.131,232.158 467.131,228.388L467.131,217.991C467.131,216.728 467.076,215.411 466.901,214.566C466.021,214.566 463.131,214.566 462.306,214.834C459.952,215.702 458.296,217.654 456.481,221.079C456.261,221.182 455.891,221.182 455.716,221.182C455.416,221.182 455.186,221.079 455.011,220.904L455.011,213.597C455.011,212.972 455.116,212.797 455.891,212.797C456.596,212.797 457.662,212.857 459.081,212.857C460.121,212.857 464.366,212.902 469.721,212.902C476.731,212.902 481.971,212.739 483.266,212.739C483.961,212.739 484.436,212.739 484.666,212.972C484.781,213.074 484.734,213.597 484.734,213.989L484.734,221.309C484.553,221.527 484.263,221.645 483.963,221.645" style="fill:rgb(35,31,32);fill-rule:nonzero;"/>
        <path id="path5861" d="M416.703,266.11C416.481,266.11 416.253,266.04 415.891,265.983C415.243,264.271 414.412,262.663 413.691,261.82C412.526,260.398 411.356,259.413 408.283,259.078C407.646,259.02 405.993,259.02 405.471,259.02L405.401,271.522C405.401,273.477 405.401,275.837 405.471,280.105C405.541,283.425 407.056,283.425 410.581,283.888C410.756,284.223 410.81,284.453 410.81,284.673C410.81,284.893 410.755,285.126 410.65,285.368L409.355,285.368C407.287,285.368 403.235,285.25 401.985,285.25C401.122,285.25 396.631,285.413 394.525,285.413C394.34,285.125 394.296,285.125 394.296,284.673C394.296,284.453 394.341,284.223 394.461,283.945C399.121,283.585 399.571,282.743 399.756,281.308C399.871,280.395 399.871,276.623 399.871,272.84L399.871,262.445C399.871,261.195 399.814,259.853 399.641,259.02C398.761,259.02 395.871,259.02 395.051,259.297C392.701,260.154 391.046,262.107 389.221,265.532C389.001,265.647 388.631,265.647 388.466,265.647C388.166,265.647 387.926,265.532 387.741,265.357L387.741,258.037C387.741,257.412 387.866,257.24 388.631,257.24C389.336,257.24 390.411,257.297 391.821,257.297C392.859,257.297 397.121,257.342 402.461,257.342C409.471,257.342 414.701,257.192 416.006,257.192C416.701,257.192 417.186,257.192 417.406,257.412C417.519,257.527 417.461,258.037 417.461,258.452L417.461,265.752C417.293,265.982 417.003,266.11 416.703,266.11" style="fill:rgb(35,31,32);fill-rule:nonzero;"/>
        <path id="path5865" d="M450.143,285.53C441.318,285.53 436.483,285.31 435.303,285.31C434.368,285.31 432.178,285.25 431.068,285.25C429.888,285.25 427.023,285.413 423.95,285.413L422.188,285.368C422.075,285.125 422.013,284.963 422.013,284.721C422.013,284.501 422.013,284.166 422.118,283.946C424.476,283.761 426.178,283.366 426.538,283.021C427.058,282.454 427.348,281.251 427.481,278.671C427.533,277.354 427.596,275.931 427.596,274.439C427.596,272.276 427.533,269.651 427.533,266.446C427.533,264.271 427.481,262.954 427.481,262.041C427.426,258.906 425.886,258.906 422.601,258.546C422.486,258.281 422.408,257.991 422.408,257.818C422.408,257.633 422.533,257.193 422.708,257.078L424.303,257.078C425.413,257.078 428.308,257.123 433.833,257.123C438.948,257.123 443.848,257.241 444.963,257.241C445.598,257.241 447.598,257.298 447.968,257.298C448.673,257.298 448.963,257.343 448.963,257.921L449.323,264.376C448.963,264.548 448.833,264.606 448.476,264.606C448.256,264.606 448.081,264.606 447.836,264.548C445.896,261.346 444.961,260.721 443.431,259.646C442.901,259.229 442.136,259.021 440.886,258.906C440.481,258.906 439.476,258.849 436.941,258.849C434.941,258.849 433.901,258.906 433.663,258.952C433.311,258.952 433.356,258.907 433.243,260.039C433.198,260.722 433.128,261.994 433.128,265.751L433.128,269.406L434.133,269.406C435.428,269.406 436.728,269.304 437.418,269.071C438.588,268.784 439.768,267.974 440.428,267.071C440.658,266.736 440.949,265.196 441.074,264.676C441.317,264.549 441.664,264.504 442.022,264.504C442.297,264.504 442.602,264.549 442.772,264.734C442.727,265.869 442.472,268.042 442.472,270.784C442.472,272.161 442.672,275.191 442.672,276.439C442.367,276.624 442.252,276.671 441.837,276.671C441.592,276.671 441.247,276.624 441.017,276.566C440.727,274.171 440.382,272.496 438.252,271.651C437.072,271.189 436.137,271.073 435.025,271.073C434.421,271.073 433.662,271.141 433.055,271.188L433.055,278.613C433.055,280.336 433.197,281.366 433.425,281.943C433.66,282.453 434.365,283.425 435.175,283.541C435.6,283.586 436.365,283.713 437.89,283.713L442.135,283.713C443.175,283.713 444.715,283.586 445.245,283.251C446.3,282.616 449.015,279.758 449.955,277.191C450.3,277.016 450.555,277.016 450.835,277.016C451.064,277.016 451.365,277.076 451.665,277.248L451.665,284.721C451.668,285.413 451.192,285.53 450.143,285.53" style="fill:rgb(35,31,32);fill-rule:nonzero;"/>
        <path id="path5869" d="M470.668,286.165C468.253,286.165 465.558,285.25 463.901,284.453C463.672,284.326 463.083,284.223 462.851,284.223C462.493,284.223 461.611,284.616 460.676,285.31C459.971,285.31 459.197,284.962 458.966,284.453C458.966,283.888 459.496,282.105 459.496,280.96C459.496,280.335 459.309,277.132 459.241,276.393C459.541,275.988 460.086,275.746 460.546,275.746C460.731,275.746 460.836,275.746 461.021,275.838C461.611,276.971 462.851,280.048 463.731,281.308C465.556,283.366 468.252,284.28 470.208,284.28C472.368,284.28 473.968,283.888 474.913,282.893C476.267,281.643 476.558,280.846 476.558,279.468C476.558,278.451 476.329,277.596 475.748,276.901C475.026,275.988 474.383,275.584 472.673,274.786C471.433,274.218 466.913,273.143 465.258,272.276C463.258,271.361 462.248,270.564 461.208,269.466C459.973,267.974 459.543,265.926 459.543,264.331C459.543,259.751 463.258,256.383 468.498,256.383C470.498,256.383 473.203,256.546 475.448,258.326C475.908,257.806 476.556,257.241 477.146,256.731C478.038,256.731 478.626,257.193 478.671,257.483C478.626,258.166 478.211,259.923 478.211,261.346C478.211,262.108 478.671,265.081 478.671,265.534C478.381,265.694 478.036,265.926 477.561,265.926C477.448,265.926 477.203,265.869 477.033,265.821C476.208,264.446 475.503,262.144 474.556,260.906C473.261,259.126 471.327,258.454 468.806,258.454C465.901,258.454 463.496,260.211 463.496,262.664C463.496,265.011 465.431,266.156 467.081,266.852C468.321,267.302 469.791,267.87 471.501,268.379C473.676,269.071 475.261,269.651 476.149,270.089C479.514,271.767 480.969,274.219 480.969,277.597C480.973,282.8 476.083,286.165 470.668,286.165" style="fill:rgb(35,31,32);fill-rule:nonzero;"/>
        <path id="path5873" d="M428.353,330.013C419.518,330.013 414.693,329.77 413.523,329.77C412.58,329.77 410.403,329.723 409.278,329.723C408.098,329.723 405.233,329.885 402.17,329.885L400.39,329.828C400.286,329.608 400.225,329.435 400.225,329.203C400.225,328.973 400.225,328.635 400.34,328.393C402.69,328.23 404.39,327.828 404.75,327.491C405.278,326.913 405.568,325.711 405.693,323.143C405.755,321.826 405.798,320.4 405.798,318.911C405.798,316.758 405.753,314.121 405.753,310.931C405.753,308.743 405.691,307.426 405.691,306.523C405.636,303.366 404.096,303.366 400.811,303.03C400.686,302.753 400.626,302.463 400.626,302.3C400.626,302.115 400.756,301.653 400.926,301.538L402.526,301.538C403.636,301.538 406.526,301.608 412.056,301.608C417.166,301.608 422.073,301.711 423.181,301.711C423.816,301.711 425.816,301.758 426.176,301.758C426.881,301.758 427.181,301.828 427.181,302.405L427.533,308.86C427.181,309.033 427.056,309.09 426.708,309.09C426.453,309.09 426.293,309.09 426.048,309.033C424.108,305.84 423.183,305.205 421.643,304.118C421.114,303.713 420.338,303.493 419.098,303.366C418.708,303.366 417.688,303.321 415.168,303.321C413.168,303.321 412.103,303.366 411.883,303.424C411.523,303.424 411.583,303.367 411.468,304.524C411.398,305.207 411.338,306.454 411.338,310.236L411.338,313.891L412.343,313.891C413.638,313.891 414.923,313.776 415.643,313.543C416.808,313.255 417.989,312.456 418.638,311.553C418.893,311.208 419.168,309.668 419.284,309.148C419.517,309.033 419.874,308.976 420.222,308.976C420.522,308.976 420.824,309.034 420.997,309.206C420.927,310.341 420.707,312.526 420.707,315.256C420.707,316.644 420.892,319.661 420.892,320.911C420.579,321.096 420.462,321.143 420.074,321.143C419.817,321.143 419.469,321.096 419.227,321.05C418.927,318.633 418.592,316.965 416.472,316.133C415.292,315.661 414.347,315.546 413.222,315.546C412.647,315.546 411.882,315.591 411.284,315.661L411.284,323.096C411.284,324.796 411.397,325.826 411.638,326.406C411.883,326.914 412.578,327.896 413.398,328.014C413.813,328.071 414.58,328.174 416.103,328.174L420.338,328.174C421.401,328.174 422.938,328.071 423.473,327.712C424.523,327.1 427.228,324.232 428.178,321.674C428.528,321.489 428.768,321.489 429.048,321.489C429.288,321.489 429.578,321.559 429.888,321.709L429.888,329.204C429.888,329.885 429.418,330.013 428.353,330.013" style="fill:rgb(35,31,32);fill-rule:nonzero;"/>
        <path id="path5877" d="M470.908,303.025C467.958,303.152 465.378,304.703 465.378,309.317L465.308,323.89C465.308,324.457 465.543,328.575 465.543,330.17C465.123,330.47 464.611,330.632 464.373,330.632C464.198,330.632 463.941,330.47 463.598,330.17L442.998,308.635L443.243,313.03L443.298,320.975C443.298,321.6 443.413,323.092 443.543,324.18C443.718,325.937 444.248,326.572 444.998,327.21C446.061,328.065 447.763,328.342 448.941,328.458C449.073,328.69 449.118,328.92 449.118,329.096C449.118,329.211 449.073,329.546 448.896,329.836L446.651,329.836C444.766,329.836 443.297,329.778 441.288,329.778C439.993,329.778 438.231,329.893 436.948,329.893L436.003,329.893C435.941,329.721 435.873,329.373 435.873,329.268C435.873,329.096 435.873,328.875 436.058,328.516C437.538,328.401 439.829,327.718 440.718,326.573C441.058,325.821 441.173,324.516 441.173,323.151L441.173,312.984C441.173,311.332 441.123,310.522 441.058,308.924C440.998,307.607 440.718,306.634 440.063,305.837C439.95,305.665 439.298,304.969 438.593,304.344C437.943,303.767 436.303,303.317 435.298,302.912C435.168,302.692 435.123,302.344 435.123,302.297C435.123,302.112 435.168,301.767 435.298,301.535L436.058,301.535C436.648,301.535 439.829,301.72 442.239,301.72L443.648,301.72C443.95,301.838 444.423,302.113 444.585,302.298L459.84,318.468C461.02,319.728 462.489,321.383 463.31,322.401L463.31,310.744C463.31,309.146 463.195,308.071 463.135,307.481C463.02,306.291 462.72,305.261 462.245,304.451C461.785,303.724 458.95,303.319 457.495,303.029C457.364,302.752 457.295,302.404 457.295,302.174C457.295,301.999 457.295,301.839 457.425,301.537L458.3,301.537C459.715,301.537 462.015,301.769 463.44,301.769C466.905,301.769 468.02,301.664 469.787,301.664L470.912,301.664C471.025,301.896 471.07,302.174 471.07,302.346C471.067,302.458 471.022,302.805 470.908,303.025" style="fill:rgb(35,31,32);fill-rule:nonzero;"/>
        <path id="path5881" d="M574.177,214.1C571.228,214.215 568.648,215.743 568.648,220.392L568.587,234.964C568.587,235.542 568.823,239.649 568.823,241.244C568.402,241.534 567.872,241.694 567.652,241.694C567.466,241.694 567.22,241.534 566.878,241.244L546.268,219.696L546.513,224.091L546.568,232.049C546.568,232.674 546.7,234.154 546.813,235.242C546.999,237.022 547.518,237.647 548.292,238.284C549.343,239.139 551.042,239.429 552.223,239.544C552.337,239.764 552.409,239.984 552.409,240.157C552.409,240.284 552.339,240.619 552.169,240.909L549.935,240.909C548.04,240.909 546.57,240.851 544.57,240.851C543.275,240.851 541.515,240.966 540.22,240.966L539.284,240.966C539.223,240.781 539.153,240.446 539.153,240.341C539.153,240.156 539.153,239.936 539.329,239.589C540.808,239.474 543.1,238.792 543.989,237.647C544.339,236.895 544.454,235.589 544.454,234.225L544.454,224.047C544.454,222.38 544.393,221.582 544.339,219.997C544.29,218.68 543.989,217.707 543.329,216.899C543.228,216.724 542.568,216.032 541.85,215.407C541.225,214.839 539.577,214.389 538.579,213.984C538.45,213.764 538.393,213.404 538.393,213.359C538.393,213.184 538.45,212.849 538.579,212.607L539.329,212.607C539.919,212.607 543.1,212.792 545.518,212.792L546.927,212.792C547.218,212.897 547.688,213.185 547.864,213.359L563.109,229.539C564.279,230.789 565.757,232.454 566.588,233.472L566.588,221.814C566.588,220.216 566.473,219.129 566.403,218.574C566.289,217.349 565.987,216.319 565.522,215.521C565.051,214.793 562.227,214.389 560.756,214.099C560.642,213.809 560.586,213.474 560.586,213.254C560.586,213.082 560.586,212.897 560.701,212.607L561.582,212.607C562.992,212.607 565.291,212.85 566.701,212.85C570.184,212.85 571.297,212.735 573.065,212.735L574.174,212.735C574.289,212.967 574.344,213.255 574.344,213.405C574.347,213.522 574.292,213.88 574.177,214.1" style="fill:rgb(35,31,32);fill-rule:nonzero;"/>
        <path id="path5885" d="M599.772,216.79C598.373,214.895 596.602,213.82 593.953,213.82C591.539,213.82 589.953,214.838 588.528,216.79C586.842,218.955 585.869,222.39 585.869,226.795C585.869,231.145 586.772,234.555 588.414,236.73C589.883,238.79 591.584,239.888 594.186,239.888C597.237,239.888 599.067,238.455 600.547,235.991C601.772,233.816 602.422,230.786 602.422,226.911C602.423,222.215 601.483,218.908 599.772,216.79M604.478,237.47C601.659,240.222 597.773,241.762 594.128,241.762C590.648,241.762 586.657,240.339 583.882,237.689C580.882,234.844 579.532,231.074 579.532,226.909C579.532,222.839 580.882,219.079 583.882,216.141C587.118,213.193 590.648,211.921 594.187,211.921C596.718,211.921 599.113,212.568 601.843,214.026C606.423,216.836 609.013,221.464 609.013,226.621C609.013,230.635 607.417,234.625 604.478,237.47" style="fill:rgb(35,31,32);fill-rule:nonzero;"/>
        <path id="path5889" d="M646.013,214.215C643.368,214.388 641.609,215.753 640.773,217.523L629.718,241.545C629.718,241.545 629.173,241.88 628.827,241.88C628.468,241.88 628.061,241.545 627.833,240.78C627.542,239.935 626.167,236.57 623.243,230.048L619.712,222.218C618.407,219.303 617.413,217.418 617.052,216.841C615.747,214.676 614.187,214.504 612.404,214.216C612.183,213.926 612.183,213.706 612.183,213.474C612.183,213.256 612.183,213.081 612.347,212.791L614.187,212.791C616.245,212.791 618.003,212.896 619.529,212.896C621.343,212.896 624.425,212.733 626.468,212.733L627.648,212.733C627.892,212.791 627.96,213.186 627.96,213.371C627.96,213.474 627.96,213.926 627.835,214.168C626.425,214.283 623.415,214.215 623.415,216.041C623.415,216.436 623.474,217.128 623.72,217.651L630.946,234.456L637.077,220.506C637.782,218.911 637.841,217.524 637.841,216.841C637.841,215.244 636.706,214.573 633.667,214.216C633.597,213.996 633.481,213.776 633.481,213.521C633.481,213.301 633.596,212.896 633.667,212.733L634.546,212.733C635.886,212.733 637.251,212.896 640.306,212.896C640.827,212.896 642.966,212.791 643.972,212.791L646.077,212.791C646.19,213.011 646.306,213.186 646.306,213.406C646.302,213.59 646.187,214.03 646.013,214.215" style="fill:rgb(35,31,32);fill-rule:nonzero;"/>
        <path id="path5893" d="M564.577,266.11C564.347,266.11 564.118,266.04 563.757,265.983C563.097,264.271 562.278,262.663 561.583,261.82C560.401,260.398 559.223,259.413 556.157,259.078C555.521,259.02 553.868,259.02 553.337,259.02L553.276,271.522C553.276,273.477 553.276,275.837 553.337,280.105C553.393,283.425 554.933,283.425 558.448,283.888C558.632,284.223 558.677,284.453 558.677,284.673C558.677,284.893 558.632,285.126 558.528,285.368L557.233,285.368C555.153,285.368 551.103,285.25 549.87,285.25C548.978,285.25 544.515,285.413 542.393,285.413C542.208,285.125 542.143,285.125 542.143,284.673C542.143,284.453 542.208,284.223 542.329,283.945C546.978,283.585 547.45,282.743 547.624,281.308C547.738,280.395 547.738,276.623 547.738,272.84L547.738,262.445C547.738,261.195 547.693,259.853 547.509,259.02C546.63,259.02 543.749,259.02 542.919,259.297C540.56,260.154 538.929,262.107 537.1,265.532C536.845,265.647 536.509,265.647 536.327,265.647C536.025,265.647 535.806,265.532 535.622,265.357L535.622,258.037C535.622,257.412 535.735,257.24 536.511,257.24C537.216,257.24 538.282,257.297 539.692,257.297C540.749,257.297 544.966,257.342 550.347,257.342C557.341,257.342 562.581,257.192 563.886,257.192C564.581,257.192 565.056,257.192 565.277,257.412C565.402,257.527 565.347,258.037 565.347,258.452L565.347,265.752C565.167,265.982 564.868,266.11 564.577,266.11" style="fill:rgb(35,31,32);fill-rule:nonzero;"/>
        <path id="path5897" d="M581.228,263.015L581.167,263.015C580.577,264.102 579.458,266.555 579.052,267.595C577.529,271.237 576.993,272.487 576.702,273.02L585.402,273.02C584.753,271.355 582.532,266.15 581.228,263.015M599.653,285.475L597.362,285.475C595.891,285.475 594.182,285.315 592.467,285.315C589.701,285.315 586.166,285.475 584.822,285.475C584.635,285.372 584.582,285.07 584.582,284.792C584.582,284.562 584.637,284.33 584.752,284.1C587.576,283.985 588.766,283.533 588.766,282.388C588.766,281.938 588.699,281.01 587.817,278.733C586.998,276.663 586.539,275.703 586.301,275.195C586.166,275.02 586.108,274.893 585.461,274.893L576.287,274.893C575.697,275.588 574.934,277.588 574.1,280.34C573.924,281.01 573.924,281.705 573.924,281.938C573.924,282.851 574.805,283.938 578.045,283.985C578.219,284.33 578.285,284.563 578.285,284.793C578.285,284.956 578.285,285.188 578.149,285.418L577.393,285.418C575.217,285.418 574.574,285.315 572.33,285.315C570.813,285.315 567.205,285.418 566.039,285.418C565.924,285.188 565.865,285.07 565.865,284.851C565.865,284.621 565.865,284.448 566.039,284.101C567.76,283.766 569.404,283.256 570.215,282.054C570.69,281.359 572.215,278.734 573.924,274.674C575.526,270.892 577.526,266.117 578.404,264.104C579.592,261.642 580,260.841 580.404,259.997C581.049,258.727 581.709,257.477 582,257.015C582.229,256.68 582.82,256.505 583.1,256.505C583.584,256.505 584.162,256.795 584.406,257.085C584.707,257.592 584.996,258.16 585.11,258.507C586.756,262.392 588.121,265.875 590.235,270.742C591.287,273.182 591.832,274.732 593.002,277.302C593.762,278.91 594.281,280.1 595.057,281.58C596.182,283.707 597.936,283.768 599.653,284.16C599.766,284.392 599.942,284.565 599.942,284.852C599.942,285.07 599.837,285.255 599.653,285.475" style="fill:rgb(35,31,32);fill-rule:nonzero;"/>
        <path id="path5901" d="M644.763,285.473L632.978,285.368L629.677,285.368C629.562,285.125 629.507,284.803 629.507,284.618C629.507,284.27 629.562,284.213 629.747,283.935C630.388,283.877 631.923,283.935 632.677,283.645C633.853,283.135 634.343,281.98 634.343,280.268L634.343,263.695C634.343,263.695 634.398,260.723 634.398,259.855L634.273,259.855L628.085,273.075C627.391,274.565 626.63,276.105 625.925,277.7C624.509,280.787 623.736,282.892 623.335,284.107C623.159,284.617 622.675,284.617 622.394,284.617C622.025,284.617 621.736,284.499 621.505,283.877C620.738,282.165 620.22,281.02 619.929,280.337L610.134,259.529L609.986,259.529L609.986,264.839L610.134,278.104C610.204,282.164 612.335,284.049 615.689,284.049C615.804,284.269 615.906,284.617 615.906,284.719C615.906,284.894 615.849,285.181 615.736,285.414C615.515,285.414 614.855,285.472 614.206,285.472C613.792,285.472 611.685,285.309 608.564,285.309C607.685,285.309 605.855,285.367 604.445,285.367L602.49,285.367C602.386,285.124 602.32,284.894 602.32,284.674C602.32,284.559 602.384,284.269 602.49,284.049C603.265,283.877 606.156,283.182 606.736,282.614C607.327,282.049 607.861,280.843 607.861,278.046L607.917,271.361L607.861,263.461C607.8,261.126 607.57,260.281 606.376,259.459C605.917,259.124 604.087,258.904 602.562,258.719C602.386,258.441 602.322,258.164 602.322,257.921C602.322,257.749 602.386,257.481 602.562,257.181C603.671,257.181 605.732,257.296 607.732,257.296L614.857,257.296C615.087,257.481 615.288,257.586 615.447,257.991L624.159,277.179L625.753,273.361C627.048,270.274 629.048,265.636 631.822,260.616C632.402,259.528 633.169,258.106 633.583,257.344L644.639,257.181C644.77,257.413 644.929,257.586 644.929,257.851C644.929,258.164 644.815,258.326 644.7,258.616C643.52,258.778 641.405,258.778 640.395,260.431C640.048,260.951 639.805,261.461 639.805,263.818L639.805,277.478C639.805,282.741 641.169,283.25 641.819,283.643C642.11,283.875 643.809,284.048 644.77,284.048C644.93,284.326 644.991,284.498 644.991,284.801C644.983,285.183 644.878,285.252 644.763,285.473" style="fill:rgb(35,31,32);fill-rule:nonzero;"/>
        <path id="path5905" d="M563.913,310.575C563.691,310.575 563.458,310.527 563.087,310.457C562.441,308.745 561.608,307.149 560.917,306.282C559.736,304.849 558.558,303.889 555.493,303.552C554.843,303.494 553.212,303.494 552.667,303.494L552.622,315.996C552.622,317.951 552.622,320.288 552.667,324.579C552.736,327.899 554.263,327.899 557.782,328.339C557.968,328.696 558.021,328.917 558.021,329.159C558.021,329.389 557.966,329.609 557.861,329.829L556.566,329.829C554.481,329.829 550.425,329.714 549.198,329.714C548.333,329.714 543.843,329.899 541.736,329.899C541.55,329.609 541.497,329.609 541.497,329.159C541.497,328.916 541.552,328.696 541.683,328.407C546.318,328.059 546.792,327.204 546.958,325.782C547.073,324.869 547.073,321.087 547.073,317.327L547.073,306.919C547.073,305.657 547.021,304.349 546.851,303.494C545.96,303.494 543.091,303.494 542.247,303.771C539.888,304.628 538.257,306.571 536.417,310.016C536.212,310.121 535.843,310.121 535.667,310.121C535.368,310.121 535.122,310.016 534.973,309.844L534.973,302.524C534.973,301.887 535.077,301.714 535.843,301.714C536.532,301.714 537.598,301.784 539.023,301.784C540.075,301.784 544.329,301.829 549.673,301.829C556.673,301.829 561.907,301.657 563.218,301.657C563.913,301.657 564.398,301.657 564.603,301.887C564.745,302.014 564.673,302.524 564.673,302.929L564.673,310.226C564.503,310.458 564.198,310.575 563.913,310.575" style="fill:rgb(35,31,32);fill-rule:nonzero;"/>
        <path id="path5909" d="M600.212,303.15C597.577,303.325 595.816,304.7 594.986,306.46L583.917,330.47C583.917,330.47 583.396,330.805 583.038,330.805C582.702,330.805 582.288,330.47 582.032,329.717C581.743,328.872 580.39,325.495 577.441,318.972L573.902,311.142C572.618,308.229 571.611,306.354 571.277,305.765C569.97,303.602 568.396,303.43 566.628,303.15C566.382,302.85 566.382,302.63 566.382,302.4C566.382,302.168 566.382,302.018 566.568,301.717L568.398,301.717C570.433,301.717 572.212,301.832 573.745,301.832C575.579,301.832 578.624,301.66 580.693,301.66L581.859,301.66C582.103,301.717 582.148,302.122 582.148,302.295C582.148,302.4 582.148,302.85 582.034,303.092C580.624,303.21 577.63,303.15 577.63,304.967C577.63,305.372 577.685,306.065 577.919,306.575L585.169,323.38L591.29,309.433C591.978,307.848 592.04,306.46 592.04,305.766C592.04,304.171 590.929,303.498 587.863,303.151C587.802,302.921 587.704,302.691 587.704,302.459C587.704,302.239 587.804,301.834 587.863,301.662L588.745,301.662C590.109,301.662 591.46,301.834 594.515,301.834C595.06,301.834 597.175,301.719 598.169,301.719L600.284,301.719C600.398,301.949 600.517,302.124 600.517,302.344C600.517,302.527 600.397,302.965 600.212,303.15" style="fill:rgb(35,31,32);fill-rule:nonzero;"/>
        <path id="path5913" d="M645.372,329.945L633.587,329.828L630.292,329.828C630.173,329.608 630.128,329.26 630.128,329.1C630.128,328.765 630.173,328.695 630.358,328.405C631.016,328.335 632.532,328.405 633.296,328.128C634.477,327.608 634.95,326.476 634.95,324.751L634.95,308.179C634.95,308.179 634.995,305.206 634.995,304.351L634.88,304.351L628.716,317.559C628.012,319.039 627.237,320.577 626.54,322.184C625.12,325.271 624.345,327.389 623.95,328.581C623.763,329.101 623.3,329.101 623.001,329.101C622.646,329.101 622.341,328.986 622.12,328.336C621.349,326.636 620.825,325.491 620.525,324.798L610.763,304.003L610.579,304.003L610.579,309.323L610.763,322.576C610.808,326.636 612.939,328.521 616.294,328.521C616.409,328.766 616.513,329.101 616.513,329.204C616.513,329.389 616.48,329.666 616.349,329.899C616.12,329.899 615.468,329.946 614.814,329.946C614.394,329.946 612.29,329.784 609.179,329.784C608.288,329.784 606.458,329.829 605.064,329.829L603.093,329.829C602.993,329.609 602.933,329.389 602.933,329.171C602.933,329.031 602.995,328.766 603.093,328.521C603.868,328.336 606.749,327.656 607.355,327.099C607.919,326.521 608.464,325.319 608.464,322.509L608.519,315.847L608.464,307.947C608.413,305.612 608.159,304.755 606.993,303.935C606.517,303.61 604.693,303.368 603.153,303.207C602.993,302.927 602.931,302.627 602.931,302.407C602.931,302.247 602.993,301.945 603.153,301.657C604.273,301.657 606.341,301.795 608.357,301.795L615.466,301.795C615.687,301.945 615.886,302.063 616.046,302.465L624.758,321.677L626.354,317.837C627.649,314.747 629.637,310.122 632.413,305.092C632.993,304.005 633.768,302.57 634.183,301.83L645.241,301.657C645.37,301.887 645.546,302.062 645.546,302.35C645.546,302.627 645.415,302.812 645.29,303.102C644.12,303.265 642.005,303.265 641.012,304.93C640.653,305.437 640.421,305.957 640.421,308.282L640.421,321.955C640.421,327.205 641.775,327.715 642.411,328.13C642.71,328.338 644.411,328.523 645.37,328.523C645.546,328.813 645.599,328.988 645.599,329.263C645.603,329.665 645.487,329.725 645.372,329.945" style="fill:rgb(35,31,32);fill-rule:nonzero;"/>
    </g>
    <rect x="285.868" y="160.82" width="452.264" height="238.935" style="fill:rgb(35,31,32);"/>
    <path id="Layer_8_3_" d="M463.266,247.567C451.413,218.082 453.803,184.025 470.87,156.147C492.314,140.194 530.301,139.707 553.439,152.747C507.481,159.83 463.266,247.567 463.266,247.567ZM499.306,211.042C499.306,211.042 597.402,205.447 626.517,241.72C626.246,215.157 606.831,182.5 582.29,171.91C549.596,171.065 518.926,186.025 499.306,211.042ZM548.956,223.98C548.956,223.98 602.847,306.145 585.98,349.485C608.855,335.967 627.422,302.808 624.338,276.277C608.722,247.555 580.437,228.455 548.956,223.98ZM472.405,368.277C495.551,381.319 533.546,380.835 554.974,364.875C572.064,337 574.45,302.947 562.583,273.458C562.585,273.458 518.381,361.2 472.405,368.277ZM526.551,309.993C526.551,309.993 428.453,315.578 399.346,279.308C399.617,305.871 419.035,338.536 443.578,349.116C476.251,349.962 506.94,335.005 526.551,309.993ZM476.896,297.047C476.896,297.047 423.011,214.895 439.87,171.552C417,185.062 398.425,218.217 401.521,244.757C417.123,273.475 445.423,292.575 476.896,297.047ZM649.924,261.825C649.924,337.882 588.066,399.755 512.006,399.755C435.948,399.755 374.075,337.882 374.075,261.825C374.075,185.767 435.95,123.895 512.006,123.895C588.065,123.895 649.924,185.768 649.924,261.825ZM637.205,261.825C637.205,192.785 581.05,136.625 512.006,136.625C442.973,136.625 386.803,192.785 386.803,261.825C386.803,330.857 442.973,387.02 512.006,387.02C581.05,387.02 637.205,330.857 637.205,261.825Z" style="fill:rgb(255,250,245);fill-rule:nonzero;"/>
    <g transform="matrix(1,0,0,1,322.115,300.121)">
        <text x="1048.12px" y="539.658px" style="font-family:'BigCaslon-Medium';font-size:950px;fill:black;">PRINCETON</text>
    </g>
    <g transform="matrix(1,0,0,1,153.05,311.406)">
        <text x="7917.16px" y="527.826px" style="font-family:'BigCaslon-Medium';font-size:950px;fill:black;">ROBOTICS</text>
    </g>
</svg>
