<?xml version="1.0" encoding="utf-8"?>
<!-- Generator: Adobe Illustrator 16.0.0, SVG Export Plug-In . SVG Version: 6.00 Build 0)  -->
<!DOCTYPE svg PUBLIC "-//W3C//DTD SVG 1.1//EN" "http://www.w3.org/Graphics/SVG/1.1/DTD/svg11.dtd">
<svg version="1.1"
	 id="svg7197" xmlns:dc="http://purl.org/dc/elements/1.1/" xmlns:cc="http://creativecommons.org/ns#" xmlns:rdf="http://www.w3.org/1999/02/22-rdf-syntax-ns#" xmlns:svg="http://www.w3.org/2000/svg" xmlns:sodipodi="http://sodipodi.sourceforge.net/DTD/sodipodi-0.dtd" xmlns:inkscape="http://www.inkscape.org/namespaces/inkscape" sodipodi:docname="New document 8" inkscape:version="0.48.1 "
	 xmlns="http://www.w3.org/2000/svg" xmlns:xlink="http://www.w3.org/1999/xlink" x="0px" y="0px" width="1024px" height="1024px"
	 viewBox="0 0 1024 1024" enable-background="new 0 0 1024 1024" xml:space="preserve">
<g>
	<g>
		<defs>
			<rect id="SVGID_1_" x="111.948" width="920.104" height="1024"/>
		</defs>
		<clipPath id="SVGID_2_">
			<use xlink:href="#SVGID_1_"  overflow="visible"/>
		</clipPath>
		<path id="path5809" inkscape:connector-curvature="0" clip-path="url(#SVGID_2_)" fill="#231F20" d="M696.702,259.19h-14.744
			v-28.08h14.744V259.19z M696.702,342.268h-14.744v-28.083h14.744V342.268z M676.567,375.035
			c-7.698,1.107-35.18,4.785-60.659,4.785c-20.726,0-36.55-1.745-50.511-3.285l-32.705-2.625l0.171,2.855v8.177
			c-3.109,1.167-10.896,3.712-20.091,3.712c-9.055,0-16.375-2.495-19.323-3.675v-11.06l-32.57,2.625
			c-13.96,1.527-29.78,3.275-50.485,3.275c-25.479,0-52.979-3.68-60.693-4.79v-170.72c1.85-0.51,6.648-1.795,10.14-2.73
			l-0.01,154.53l1.153,0.785c0.545,0.36,13.485,8.825,46.762,8.825c16.738,0,29.573-2.74,42.02-5.4
			c10.641-2.27,20.69-4.42,32.016-4.42c21.664,0,28.439,11.37,28.694,11.833l0.274-0.137h4.984l0.307,0.137
			c0.283-0.462,7.053-11.832,28.713-11.832c11.299,0,21.375,2.153,32.039,4.42c12.43,2.66,25.291,5.4,42.031,5.4
			c33.26,0,46.225-8.465,46.76-8.825l1.164-0.785V201.65c3.451,0.935,8.031,2.163,9.82,2.66v170.72V375.035L676.567,375.035z
			 M344.317,259.19h-14.733v-28.08h14.733V259.19z M344.317,342.268h-14.733v-28.083h14.733V342.268z M365.218,182
			c5.97,2.6,18.955,6.8,42.525,6.8c16.75,0,29.573-2.752,42.02-5.4c10.64-2.28,20.705-4.407,32.04-4.407
			c21.67,0,28.415,11.333,28.694,11.82h0.056V359.95c-4.765-4.15-13.67-9.218-28.775-9.218c-11.88,0-22.238,2.21-33.17,4.545
			c-12.145,2.578-24.715,5.263-40.864,5.263c-27.615,0-39.807-5.82-42.525-7.31V182.045V182z M515.933,190.743l0.09,0.117
			c0.267-0.51,7.045-11.867,28.722-11.867c11.309,0,21.385,2.152,32.049,4.417c12.42,2.66,25.281,5.4,42.006,5.4
			c23.584,0,36.595-4.185,42.562-6.81v171.243c-2.717,1.492-14.941,7.31-42.535,7.31c-16.16,0-28.722-2.685-40.888-5.263
			c-10.953-2.335-21.305-4.545-33.184-4.545c-15.141,0-24.055,5.1-28.82,9.265V190.803L515.933,190.743L515.933,190.743z
			 M910.798,149.465c-32.336,9.855-66.721,15.185-102.4,15.185c-125.93,0-235.875-66.165-295.255-164.65
			c-59.365,98.485-169.3,164.65-295.193,164.65c-35.655,0-69.995-5.32-102.285-15.14c-8.455,96.148-2.29,190.985,16.83,282.185
			h760.97C913.368,336.555,918.743,241.725,910.798,149.465"/>
	</g>
	<g>
		<defs>
			<rect id="SVGID_3_" x="111.948" width="920.104" height="1024"/>
		</defs>
		<clipPath id="SVGID_4_">
			<use xlink:href="#SVGID_3_"  overflow="visible"/>
		</clipPath>
		<path id="path5813" inkscape:connector-curvature="0" clip-path="url(#SVGID_4_)" fill="#F36D1D" d="M325.232,841.35
			c53.886,68.11,116.86,129.67,187.726,182.65c70.145-52.29,133.504-113.44,188.094-182.2L512.853,658.845L325.232,841.35z"/>
	</g>
	<g>
		<defs>
			<rect id="SVGID_5_" x="111.948" width="920.104" height="1024"/>
		</defs>
		<clipPath id="SVGID_6_">
			<use xlink:href="#SVGID_5_"  overflow="visible"/>
		</clipPath>
		<path id="path5817" inkscape:connector-curvature="0" clip-path="url(#SVGID_6_)" fill="#F36D1D" d="M237.463,710.49l275.39-264.6
			l275.895,265.355c45.813-81.55,80.602-170.665,101.951-266.038c1.004-4.51,1.807-8.987,2.766-13.52h-760.97
			C153.078,529.845,188.732,623.75,237.463,710.49"/>
	</g>
	<g>
		<defs>
			<rect id="SVGID_7_" x="111.948" width="920.104" height="1024"/>
		</defs>
		<clipPath id="SVGID_8_">
			<use xlink:href="#SVGID_7_"  overflow="visible"/>
		</clipPath>
		<path id="path5821" inkscape:connector-curvature="0" clip-path="url(#SVGID_8_)" fill="#F36D1D" d="M237.463,710.49
			c25.71,45.779,55.063,89.529,87.77,130.858l187.62-182.499L701.052,841.8c32.49-40.885,61.846-84.5,87.695-130.555L512.853,445.89
			L237.463,710.49z"/>
	</g>
	<g>
		<defs>
			<rect id="SVGID_9_" x="111.948" width="920.104" height="1024"/>
		</defs>
		<clipPath id="SVGID_10_">
			<use xlink:href="#SVGID_9_"  overflow="visible"/>
		</clipPath>
		<path id="path5825" inkscape:connector-curvature="0" clip-path="url(#SVGID_10_)" fill="#231F20" d="M237.463,710.49
			c25.71,45.779,55.063,89.529,87.77,130.858l187.62-182.499L701.052,841.8c32.49-40.885,61.846-84.5,87.695-130.555L512.853,445.89
			L237.463,710.49z"/>
	</g>
	<g>
		<defs>
			<rect id="SVGID_11_" x="111.948" width="920.104" height="1024"/>
		</defs>
		<clipPath id="SVGID_12_">
			<use xlink:href="#SVGID_11_"  overflow="visible"/>
		</clipPath>
		<path id="path5827" inkscape:connector-curvature="0" clip-path="url(#SVGID_12_)" fill="#FFFFFF" d="M681.958,342.268h14.744
			v-28.083h-14.744V342.268L681.958,342.268z"/>
	</g>
	<g>
		<defs>
			<rect id="SVGID_13_" x="111.948" width="920.104" height="1024"/>
		</defs>
		<clipPath id="SVGID_14_">
			<use xlink:href="#SVGID_13_"  overflow="visible"/>
		</clipPath>
		<path id="path5831" inkscape:connector-curvature="0" clip-path="url(#SVGID_14_)" fill="#FFFFFF" d="M666.753,356.112
			l-1.17,0.775c-0.531,0.37-13.496,8.837-46.76,8.837c-16.75,0-29.603-2.755-42.031-5.403c-10.664-2.267-20.74-4.417-32.039-4.417
			c-21.66,0-28.426,11.368-28.715,11.83l-0.302-0.137h-4.983l-0.291,0.137c-0.254-0.462-7.021-11.83-28.686-11.83
			c-11.318,0-21.368,2.15-32.015,4.417c-12.445,2.648-25.28,5.403-42.015,5.403c-33.275,0-46.23-8.468-46.775-8.837l-1.145-0.775
			l0.015-154.53c-3.495,0.938-8.295,2.22-10.145,2.717v170.735c7.715,1.11,35.22,4.787,60.693,4.787
			c20.705,0,36.525-1.747,50.485-3.272l32.57-2.625v11.055c2.948,1.18,10.27,3.68,19.313,3.68c9.205,0,16.99-2.545,20.1-3.715
			v-8.175l-0.17-2.857l32.705,2.625c13.961,1.538,29.785,3.285,50.511,3.285c25.48,0,52.961-3.677,60.66-4.787V204.3
			c-1.789-0.485-6.369-1.712-9.814-2.65v154.462H666.753z"/>
	</g>
	<g>
		<defs>
			<rect id="SVGID_15_" x="111.948" width="920.104" height="1024"/>
		</defs>
		<clipPath id="SVGID_16_">
			<use xlink:href="#SVGID_15_"  overflow="visible"/>
		</clipPath>
		<path id="path5833" inkscape:connector-curvature="0" clip-path="url(#SVGID_16_)" fill="#FFFFFF" d="M681.958,259.19h14.744
			v-28.08h-14.744V259.19L681.958,259.19z"/>
	</g>
	<g>
		<defs>
			<rect id="SVGID_17_" x="111.948" width="920.104" height="1024"/>
		</defs>
		<clipPath id="SVGID_18_">
			<use xlink:href="#SVGID_17_"  overflow="visible"/>
		</clipPath>
		<path id="path5835" inkscape:connector-curvature="0" clip-path="url(#SVGID_18_)" fill="#FFFFFF" d="M329.583,259.19h14.733
			v-28.08h-14.733V259.19z"/>
	</g>
	<g>
		<defs>
			<rect id="SVGID_19_" x="111.948" width="920.104" height="1024"/>
		</defs>
		<clipPath id="SVGID_20_">
			<use xlink:href="#SVGID_19_"  overflow="visible"/>
		</clipPath>
		<path id="path5839" inkscape:connector-curvature="0" clip-path="url(#SVGID_20_)" fill="#FFFFFF" d="M448.607,355.235
			c10.932-2.337,21.29-4.547,33.17-4.547c15.105,0,24.012,5.067,28.775,9.217V190.768l-0.056,0.047
			c-0.279-0.498-7.024-11.82-28.694-11.82c-11.335,0-21.4,2.127-32.04,4.405c-12.445,2.65-25.27,5.403-42.02,5.403
			c-23.57,0-36.557-4.2-42.525-6.803v171.188c2.72,1.49,14.91,7.308,42.525,7.308C423.893,360.495,436.463,357.812,448.607,355.235"
			/>
	</g>
	<g>
		<defs>
			<rect id="SVGID_21_" x="111.948" width="920.104" height="1024"/>
		</defs>
		<clipPath id="SVGID_22_">
			<use xlink:href="#SVGID_21_"  overflow="visible"/>
		</clipPath>
		<path id="path5841" inkscape:connector-curvature="0" clip-path="url(#SVGID_22_)" fill="#FFFFFF" d="M329.583,342.268h14.733
			v-28.083h-14.733V342.268z"/>
	</g>
	<g>
		<defs>
			<rect id="SVGID_23_" x="111.948" width="920.104" height="1024"/>
		</defs>
		<clipPath id="SVGID_24_">
			<use xlink:href="#SVGID_23_"  overflow="visible"/>
		</clipPath>
		<path id="path5845" inkscape:connector-curvature="0" clip-path="url(#SVGID_24_)" fill="#FFFFFF" d="M577.937,355.235
			c12.172,2.578,24.722,5.26,40.888,5.26c27.6,0,39.823-5.817,42.538-7.308V181.942c-5.965,2.615-18.989,6.813-42.561,6.813
			c-16.725,0-29.584-2.74-42.01-5.4c-10.66-2.268-20.734-4.42-32.061-4.42c-21.675,0-28.439,11.36-28.705,11.868l-0.104-0.058
			v169.208c4.775-4.175,13.695-9.265,28.824-9.265C556.632,350.687,566.972,352.897,577.937,355.235"/>
	</g>
	<g>
		<defs>
			<rect id="SVGID_25_" x="111.948" width="920.104" height="1024"/>
		</defs>
		<clipPath id="SVGID_26_">
			<use xlink:href="#SVGID_25_"  overflow="visible"/>
		</clipPath>
		<path id="path5849" inkscape:connector-curvature="0" clip-path="url(#SVGID_26_)" fill="#231F20" d="M417.923,214.215
			c-2.635,0.173-4.396,1.538-5.225,3.308l-11.057,24.022c0,0-0.535,0.335-0.895,0.335c-0.37,0-0.775-0.335-0.99-1.1
			c-0.305-0.845-1.655-4.21-4.595-10.732l-3.525-7.83c-1.31-2.915-2.305-4.8-2.65-5.377c-1.295-2.165-2.89-2.337-4.658-2.625
			c-0.23-0.29-0.23-0.51-0.23-0.742c0-0.218,0-0.393,0.17-0.683h1.83c2.055,0,3.825,0.105,5.34,0.105
			c1.83,0,4.905-0.163,6.965-0.163h1.172c0.238,0.058,0.3,0.453,0.3,0.638c0,0.103,0,0.555-0.115,0.797
			c-1.425,0.115-4.42,0.047-4.42,1.873c0,0.395,0.07,1.087,0.3,1.61l7.23,16.805l6.113-13.95c0.71-1.595,0.767-2.982,0.767-3.665
			c0-1.597-1.11-2.268-4.165-2.625c-0.057-0.22-0.187-0.44-0.187-0.695c0-0.22,0.13-0.625,0.187-0.788h0.88
			c1.34,0,2.695,0.163,5.76,0.163c0.535,0,2.66-0.105,3.655-0.105h2.115c0.118,0.22,0.233,0.395,0.233,0.615
			C418.228,213.59,418.113,214.03,417.923,214.215"/>
	</g>
	<g>
		<defs>
			<rect id="SVGID_27_" x="111.948" width="920.104" height="1024"/>
		</defs>
		<clipPath id="SVGID_28_">
			<use xlink:href="#SVGID_27_"  overflow="visible"/>
		</clipPath>
		<path id="path5853" inkscape:connector-curvature="0" clip-path="url(#SVGID_28_)" fill="#231F20" d="M448.838,241.075
			c-8.84,0-13.66-0.22-14.84-0.22c-0.937,0-3.125-0.07-4.235-0.07c-1.165,0-4.06,0.175-7.125,0.175l-1.745-0.047
			c-0.125-0.243-0.185-0.405-0.185-0.625c0-0.23,0-0.587,0.115-0.82c2.358-0.162,4.05-0.567,4.42-0.902
			c0.51-0.578,0.81-1.78,0.935-4.337c0.045-1.317,0.115-2.752,0.115-4.245c0-2.163-0.07-4.797-0.07-7.98
			c0-2.185-0.045-3.493-0.045-4.405c-0.07-3.17-1.585-3.17-4.89-3.495c-0.115-0.288-0.165-0.578-0.165-0.74
			c0-0.172,0.104-0.622,0.278-0.75h1.597c1.108,0,4,0.068,9.528,0.068c5.125,0,10.007,0.117,11.125,0.117
			c0.65,0,2.65,0.058,3.012,0.058c0.705,0,0.995,0.045,0.995,0.625l0.354,6.453c-0.354,0.172-0.47,0.22-0.84,0.22
			c-0.22,0-0.405,0-0.64-0.047c-1.94-3.203-2.882-3.84-4.405-4.915c-0.545-0.393-1.295-0.625-2.535-0.762
			c-0.425,0-1.41-0.035-3.93-0.035c-2.017,0-3.065,0.035-3.312,0.105c-0.345,0-0.3-0.07-0.415,1.098
			c-0.055,0.67-0.113,1.932-0.113,5.715v3.643h1.005c1.295,0,2.59-0.105,3.295-0.335c1.18-0.29,2.35-1.078,3.01-2.002
			c0.22-0.345,0.52-1.885,0.635-2.393c0.23-0.118,0.59-0.185,0.95-0.185c0.275,0,0.575,0.067,0.75,0.23
			c-0.045,1.157-0.29,3.32-0.29,6.063c0,1.375,0.185,4.417,0.185,5.655c-0.3,0.173-0.413,0.243-0.828,0.243
			c-0.245,0-0.58-0.07-0.82-0.115c-0.305-2.407-0.65-4.06-2.765-4.917c-1.182-0.462-2.12-0.565-3.24-0.565
			c-0.59,0-1.355,0.035-1.945,0.104v7.428c0,1.722,0.12,2.74,0.36,3.307c0.229,0.52,0.938,1.49,1.76,1.608
			c0.415,0.057,1.165,0.172,2.715,0.172h4.235c1.05,0,2.59-0.115,3.12-0.45c1.045-0.637,3.75-3.505,4.698-6.063
			c0.355-0.172,0.602-0.172,0.9-0.172c0.22,0,0.521,0.058,0.81,0.232v7.493C450.363,240.96,449.888,241.075,448.838,241.075"/>
	</g>
	<g>
		<defs>
			<rect id="SVGID_29_" x="111.948" width="920.104" height="1024"/>
		</defs>
		<clipPath id="SVGID_30_">
			<use xlink:href="#SVGID_29_"  overflow="visible"/>
		</clipPath>
		<path id="path5857" inkscape:connector-curvature="0" clip-path="url(#SVGID_30_)" fill="#231F20" d="M483.963,221.645
			c-0.235,0-0.477-0.06-0.825-0.118c-0.645-1.712-1.465-3.307-2.185-4.188c-1.155-1.42-2.335-2.37-5.4-2.728
			c-0.645-0.047-2.3-0.047-2.82-0.047l-0.068,12.502c0,1.942,0,4.292,0.068,8.583c0.045,3.308,1.585,3.308,5.11,3.783
			c0.175,0.322,0.23,0.555,0.23,0.797c0,0.22-0.057,0.44-0.187,0.683h-1.27c-2.07,0-6.12-0.127-7.37-0.127
			c-0.875,0-5.355,0.175-7.46,0.175c-0.195-0.29-0.24-0.29-0.24-0.73c0-0.243,0.045-0.475,0.175-0.752
			c4.646-0.348,5.11-1.203,5.295-2.638c0.115-0.9,0.115-4.682,0.115-8.452v-10.397c0-1.263-0.055-2.58-0.23-3.425
			c-0.88,0-3.77,0-4.595,0.268c-2.354,0.868-4.01,2.82-5.825,6.245c-0.22,0.103-0.59,0.103-0.765,0.103
			c-0.3,0-0.53-0.103-0.705-0.278v-7.307c0-0.625,0.105-0.8,0.88-0.8c0.705,0,1.771,0.06,3.19,0.06c1.04,0,5.285,0.045,10.64,0.045
			c7.01,0,12.25-0.163,13.545-0.163c0.695,0,1.17,0,1.4,0.233c0.115,0.102,0.068,0.625,0.068,1.017v7.32
			C484.553,221.527,484.263,221.645,483.963,221.645"/>
	</g>
	<g>
		<defs>
			<rect id="SVGID_31_" x="111.948" width="920.104" height="1024"/>
		</defs>
		<clipPath id="SVGID_32_">
			<use xlink:href="#SVGID_31_"  overflow="visible"/>
		</clipPath>
		<path id="path5861" inkscape:connector-curvature="0" clip-path="url(#SVGID_32_)" fill="#231F20" d="M416.703,266.11
			c-0.222,0-0.45-0.07-0.812-0.127c-0.648-1.712-1.479-3.32-2.2-4.163c-1.165-1.422-2.335-2.407-5.408-2.742
			c-0.637-0.058-2.29-0.058-2.812-0.058l-0.07,12.502c0,1.955,0,4.315,0.07,8.583c0.07,3.32,1.585,3.32,5.11,3.783
			c0.175,0.335,0.229,0.565,0.229,0.785c0,0.22-0.055,0.453-0.16,0.695h-1.295c-2.068,0-6.12-0.118-7.37-0.118
			c-0.863,0-5.354,0.163-7.46,0.163c-0.185-0.288-0.229-0.288-0.229-0.74c0-0.22,0.045-0.45,0.165-0.728
			c4.66-0.36,5.11-1.202,5.295-2.637c0.115-0.913,0.115-4.685,0.115-8.468v-10.395c0-1.25-0.057-2.592-0.23-3.425
			c-0.88,0-3.77,0-4.59,0.277c-2.35,0.857-4.005,2.81-5.83,6.235c-0.22,0.115-0.59,0.115-0.755,0.115c-0.3,0-0.54-0.115-0.725-0.29
			v-7.32c0-0.625,0.125-0.797,0.89-0.797c0.705,0,1.78,0.057,3.19,0.057c1.038,0,5.3,0.045,10.64,0.045
			c7.01,0,12.24-0.15,13.545-0.15c0.695,0,1.18,0,1.4,0.22c0.113,0.115,0.055,0.625,0.055,1.04v7.3
			C417.293,265.982,417.003,266.11,416.703,266.11"/>
	</g>
	<g>
		<defs>
			<rect id="SVGID_33_" x="111.948" width="920.104" height="1024"/>
		</defs>
		<clipPath id="SVGID_34_">
			<use xlink:href="#SVGID_33_"  overflow="visible"/>
		</clipPath>
		<path id="path5865" inkscape:connector-curvature="0" clip-path="url(#SVGID_34_)" fill="#231F20" d="M450.143,285.53
			c-8.825,0-13.66-0.22-14.84-0.22c-0.935,0-3.125-0.06-4.235-0.06c-1.18,0-4.045,0.163-7.118,0.163l-1.762-0.045
			c-0.113-0.243-0.175-0.405-0.175-0.647c0-0.22,0-0.555,0.105-0.775c2.358-0.185,4.06-0.58,4.42-0.925
			c0.52-0.567,0.81-1.77,0.943-4.35c0.052-1.317,0.115-2.74,0.115-4.232c0-2.163-0.063-4.788-0.063-7.993
			c0-2.175-0.052-3.492-0.052-4.405c-0.055-3.135-1.595-3.135-4.88-3.495c-0.115-0.265-0.193-0.555-0.193-0.728
			c0-0.185,0.125-0.625,0.3-0.74h1.595c1.11,0,4.005,0.045,9.53,0.045c5.115,0,10.015,0.118,11.13,0.118
			c0.635,0,2.635,0.057,3.005,0.057c0.705,0,0.995,0.045,0.995,0.623l0.36,6.455c-0.36,0.172-0.49,0.23-0.847,0.23
			c-0.22,0-0.395,0-0.64-0.058c-1.94-3.202-2.875-3.827-4.405-4.902c-0.53-0.417-1.295-0.625-2.545-0.74
			c-0.405,0-1.41-0.057-3.945-0.057c-2,0-3.04,0.057-3.278,0.103c-0.352,0-0.307-0.045-0.42,1.087
			c-0.045,0.683-0.115,1.955-0.115,5.712v3.655h1.005c1.295,0,2.595-0.102,3.285-0.335c1.17-0.287,2.35-1.097,3.01-2
			c0.23-0.335,0.521-1.875,0.646-2.395c0.243-0.127,0.59-0.172,0.948-0.172c0.275,0,0.58,0.045,0.75,0.23
			c-0.045,1.135-0.3,3.308-0.3,6.05c0,1.377,0.2,4.407,0.2,5.655c-0.305,0.185-0.42,0.232-0.835,0.232
			c-0.245,0-0.59-0.047-0.82-0.105c-0.29-2.395-0.635-4.07-2.765-4.915c-1.18-0.462-2.115-0.578-3.227-0.578
			c-0.604,0-1.363,0.068-1.97,0.115v7.425c0,1.723,0.142,2.753,0.37,3.33c0.235,0.51,0.94,1.482,1.75,1.598
			c0.425,0.045,1.19,0.172,2.715,0.172h4.245c1.04,0,2.58-0.127,3.11-0.462c1.055-0.635,3.77-3.493,4.71-6.06
			c0.345-0.175,0.6-0.175,0.88-0.175c0.229,0,0.53,0.06,0.83,0.232v7.473C451.668,285.413,451.192,285.53,450.143,285.53"/>
	</g>
	<g>
		<defs>
			<rect id="SVGID_35_" x="111.948" width="920.104" height="1024"/>
		</defs>
		<clipPath id="SVGID_36_">
			<use xlink:href="#SVGID_35_"  overflow="visible"/>
		</clipPath>
		<path id="path5869" inkscape:connector-curvature="0" clip-path="url(#SVGID_36_)" fill="#231F20" d="M470.668,286.165
			c-2.415,0-5.11-0.915-6.767-1.712c-0.229-0.127-0.818-0.23-1.05-0.23c-0.358,0-1.24,0.393-2.175,1.087
			c-0.705,0-1.479-0.348-1.71-0.857c0-0.565,0.53-2.348,0.53-3.493c0-0.625-0.187-3.828-0.255-4.567
			c0.3-0.405,0.845-0.647,1.305-0.647c0.185,0,0.29,0,0.475,0.092c0.59,1.133,1.83,4.21,2.71,5.47
			c1.825,2.058,4.521,2.972,6.477,2.972c2.16,0,3.76-0.392,4.705-1.387c1.354-1.25,1.645-2.047,1.645-3.425
			c0-1.017-0.229-1.872-0.81-2.567c-0.722-0.913-1.365-1.317-3.075-2.115c-1.24-0.568-5.76-1.643-7.415-2.51
			c-2-0.915-3.01-1.712-4.05-2.81c-1.235-1.492-1.665-3.54-1.665-5.135c0-4.58,3.715-7.948,8.955-7.948c2,0,4.705,0.163,6.95,1.943
			c0.46-0.52,1.108-1.085,1.698-1.595c0.892,0,1.48,0.462,1.525,0.752c-0.045,0.683-0.46,2.44-0.46,3.863
			c0,0.762,0.46,3.735,0.46,4.188c-0.29,0.16-0.635,0.392-1.11,0.392c-0.113,0-0.358-0.057-0.528-0.105
			c-0.825-1.375-1.53-3.677-2.477-4.915c-1.295-1.78-3.229-2.452-5.75-2.452c-2.905,0-5.31,1.757-5.31,4.21
			c0,2.347,1.935,3.492,3.585,4.188c1.24,0.45,2.71,1.018,4.42,1.527c2.175,0.692,3.76,1.272,4.648,1.71
			c3.365,1.678,4.82,4.13,4.82,7.508C480.973,282.8,476.083,286.165,470.668,286.165"/>
	</g>
	<g>
		<defs>
			<rect id="SVGID_37_" x="111.948" width="920.104" height="1024"/>
		</defs>
		<clipPath id="SVGID_38_">
			<use xlink:href="#SVGID_37_"  overflow="visible"/>
		</clipPath>
		<path id="path5873" inkscape:connector-curvature="0" clip-path="url(#SVGID_38_)" fill="#231F20" d="M428.353,330.013
			c-8.835,0-13.66-0.243-14.83-0.243c-0.943,0-3.12-0.047-4.245-0.047c-1.18,0-4.045,0.162-7.108,0.162l-1.78-0.057
			c-0.104-0.22-0.165-0.393-0.165-0.625c0-0.23,0-0.568,0.115-0.81c2.35-0.163,4.05-0.565,4.41-0.902
			c0.528-0.578,0.818-1.78,0.943-4.348c0.062-1.317,0.105-2.743,0.105-4.232c0-2.153-0.045-4.79-0.045-7.98
			c0-2.188-0.062-3.505-0.062-4.408c-0.055-3.157-1.595-3.157-4.88-3.493c-0.125-0.277-0.185-0.567-0.185-0.73
			c0-0.185,0.13-0.647,0.3-0.762h1.6c1.11,0,4,0.07,9.53,0.07c5.11,0,10.017,0.103,11.125,0.103c0.635,0,2.635,0.047,2.995,0.047
			c0.705,0,1.005,0.07,1.005,0.647l0.352,6.455c-0.352,0.173-0.477,0.23-0.825,0.23c-0.255,0-0.415,0-0.66-0.057
			c-1.94-3.193-2.865-3.828-4.405-4.915c-0.529-0.405-1.305-0.625-2.545-0.752c-0.39,0-1.41-0.045-3.93-0.045
			c-2,0-3.065,0.045-3.285,0.103c-0.36,0-0.3-0.057-0.415,1.1c-0.07,0.683-0.13,1.93-0.13,5.712v3.655h1.005
			c1.295,0,2.58-0.115,3.3-0.348c1.165-0.288,2.346-1.087,2.995-1.99c0.255-0.345,0.53-1.885,0.646-2.405
			c0.233-0.115,0.59-0.172,0.938-0.172c0.3,0,0.602,0.058,0.775,0.23c-0.07,1.135-0.29,3.32-0.29,6.05
			c0,1.388,0.185,4.405,0.185,5.655c-0.313,0.185-0.43,0.232-0.818,0.232c-0.257,0-0.605-0.047-0.847-0.093
			c-0.3-2.417-0.635-4.085-2.755-4.917c-1.18-0.472-2.125-0.587-3.25-0.587c-0.575,0-1.34,0.045-1.938,0.115v7.435
			c0,1.7,0.113,2.73,0.354,3.31c0.245,0.508,0.94,1.49,1.76,1.608c0.415,0.057,1.182,0.16,2.705,0.16h4.235
			c1.063,0,2.6-0.103,3.135-0.462c1.05-0.612,3.755-3.48,4.705-6.038c0.35-0.185,0.59-0.185,0.87-0.185c0.24,0,0.53,0.07,0.84,0.22
			v7.495C429.888,329.885,429.418,330.013,428.353,330.013"/>
	</g>
	<g>
		<defs>
			<rect id="SVGID_39_" x="111.948" width="920.104" height="1024"/>
		</defs>
		<clipPath id="SVGID_40_">
			<use xlink:href="#SVGID_39_"  overflow="visible"/>
		</clipPath>
		<path id="path5877" inkscape:connector-curvature="0" clip-path="url(#SVGID_40_)" fill="#231F20" d="M470.908,303.025
			c-2.95,0.127-5.53,1.678-5.53,6.292l-0.07,14.573c0,0.567,0.235,4.685,0.235,6.28c-0.42,0.3-0.932,0.462-1.17,0.462
			c-0.175,0-0.432-0.162-0.775-0.462l-20.6-21.535l0.245,4.395l0.055,7.945c0,0.625,0.115,2.117,0.245,3.205
			c0.175,1.757,0.705,2.392,1.455,3.03c1.063,0.855,2.765,1.132,3.943,1.248c0.132,0.232,0.177,0.462,0.177,0.638
			c0,0.115-0.045,0.45-0.222,0.74h-2.245c-1.885,0-3.354-0.058-5.363-0.058c-1.295,0-3.057,0.115-4.34,0.115h-0.945
			c-0.062-0.172-0.13-0.52-0.13-0.625c0-0.172,0-0.393,0.185-0.752c1.48-0.115,3.771-0.798,4.66-1.943
			c0.34-0.752,0.455-2.057,0.455-3.422v-10.167c0-1.652-0.05-2.462-0.115-4.06c-0.06-1.317-0.34-2.29-0.995-3.087
			c-0.113-0.172-0.765-0.868-1.47-1.493c-0.65-0.577-2.29-1.027-3.295-1.432c-0.13-0.22-0.175-0.568-0.175-0.615
			c0-0.185,0.045-0.53,0.175-0.762h0.76c0.59,0,3.771,0.185,6.181,0.185h1.409c0.302,0.118,0.775,0.393,0.937,0.578l15.255,16.17
			c1.18,1.26,2.649,2.915,3.47,3.933v-11.657c0-1.598-0.115-2.673-0.175-3.263c-0.115-1.19-0.415-2.22-0.89-3.03
			c-0.46-0.727-3.295-1.132-4.75-1.422c-0.131-0.277-0.2-0.625-0.2-0.855c0-0.175,0-0.335,0.13-0.637h0.875
			c1.415,0,3.715,0.232,5.14,0.232c3.465,0,4.58-0.105,6.347-0.105h1.125c0.113,0.232,0.158,0.51,0.158,0.682
			C471.067,302.458,471.022,302.805,470.908,303.025"/>
	</g>
	<g>
		<defs>
			<rect id="SVGID_41_" x="111.948" width="920.104" height="1024"/>
		</defs>
		<clipPath id="SVGID_42_">
			<use xlink:href="#SVGID_41_"  overflow="visible"/>
		</clipPath>
		<path id="path5881" inkscape:connector-curvature="0" clip-path="url(#SVGID_42_)" fill="#231F20" d="M574.177,214.1
			c-2.949,0.115-5.529,1.643-5.529,6.292l-0.061,14.572c0,0.578,0.236,4.685,0.236,6.28c-0.421,0.29-0.951,0.45-1.171,0.45
			c-0.186,0-0.432-0.16-0.774-0.45l-20.61-21.548l0.245,4.395l0.055,7.958c0,0.625,0.132,2.105,0.245,3.193
			c0.186,1.78,0.705,2.405,1.479,3.042c1.051,0.855,2.75,1.145,3.931,1.26c0.114,0.22,0.186,0.44,0.186,0.613
			c0,0.127-0.07,0.462-0.24,0.752h-2.234c-1.895,0-3.365-0.058-5.365-0.058c-1.295,0-3.055,0.115-4.35,0.115h-0.936
			c-0.061-0.185-0.131-0.52-0.131-0.625c0-0.185,0-0.405,0.176-0.752c1.479-0.115,3.771-0.797,4.66-1.942
			c0.35-0.752,0.465-2.058,0.465-3.422v-10.178c0-1.667-0.061-2.465-0.115-4.05c-0.049-1.317-0.35-2.29-1.01-3.098
			c-0.101-0.175-0.761-0.867-1.479-1.492c-0.625-0.568-2.273-1.018-3.271-1.423c-0.129-0.22-0.186-0.58-0.186-0.625
			c0-0.175,0.057-0.51,0.186-0.752h0.75c0.59,0,3.771,0.185,6.189,0.185h1.409c0.291,0.105,0.761,0.393,0.937,0.567l15.245,16.18
			c1.17,1.25,2.648,2.915,3.479,3.933v-11.658c0-1.598-0.115-2.685-0.185-3.24c-0.114-1.225-0.416-2.255-0.881-3.053
			c-0.471-0.728-3.295-1.132-4.766-1.422c-0.114-0.29-0.17-0.625-0.17-0.845c0-0.172,0-0.357,0.115-0.647h0.881
			c1.41,0,3.709,0.243,5.119,0.243c3.483,0,4.596-0.115,6.364-0.115h1.109c0.115,0.232,0.17,0.52,0.17,0.67
			C574.347,213.522,574.292,213.88,574.177,214.1"/>
	</g>
	<g>
		<defs>
			<rect id="SVGID_43_" x="111.948" width="920.104" height="1024"/>
		</defs>
		<clipPath id="SVGID_44_">
			<use xlink:href="#SVGID_43_"  overflow="visible"/>
		</clipPath>
		<path id="path5885" inkscape:connector-curvature="0" clip-path="url(#SVGID_44_)" fill="#231F20" d="M599.772,216.79
			c-1.399-1.895-3.17-2.97-5.819-2.97c-2.414,0-4,1.018-5.425,2.97c-1.686,2.165-2.659,5.6-2.659,10.005
			c0,4.35,0.903,7.76,2.545,9.935c1.469,2.06,3.17,3.158,5.772,3.158c3.051,0,4.881-1.433,6.361-3.897
			c1.225-2.175,1.875-5.205,1.875-9.08C602.423,222.215,601.483,218.908,599.772,216.79 M604.478,237.47
			c-2.819,2.752-6.705,4.292-10.35,4.292c-3.48,0-7.471-1.423-10.246-4.073c-3-2.845-4.35-6.615-4.35-10.78
			c0-4.07,1.35-7.83,4.35-10.768c3.236-2.948,6.766-4.22,10.305-4.22c2.531,0,4.926,0.647,7.656,2.105
			c4.58,2.81,7.17,7.438,7.17,12.595C609.013,230.635,607.417,234.625,604.478,237.47"/>
	</g>
	<g>
		<defs>
			<rect id="SVGID_45_" x="111.948" width="920.104" height="1024"/>
		</defs>
		<clipPath id="SVGID_46_">
			<use xlink:href="#SVGID_45_"  overflow="visible"/>
		</clipPath>
		<path id="path5889" inkscape:connector-curvature="0" clip-path="url(#SVGID_46_)" fill="#231F20" d="M646.013,214.215
			c-2.645,0.173-4.404,1.538-5.24,3.308l-11.055,24.022c0,0-0.545,0.335-0.891,0.335c-0.359,0-0.766-0.335-0.994-1.1
			c-0.291-0.845-1.666-4.21-4.59-10.732l-3.531-7.83c-1.305-2.915-2.299-4.8-2.66-5.377c-1.305-2.165-2.865-2.337-4.648-2.625
			c-0.221-0.29-0.221-0.51-0.221-0.742c0-0.218,0-0.393,0.164-0.683h1.84c2.058,0,3.816,0.105,5.342,0.105
			c1.814,0,4.896-0.163,6.939-0.163h1.18c0.244,0.058,0.312,0.453,0.312,0.638c0,0.103,0,0.555-0.125,0.797
			c-1.41,0.115-4.42,0.047-4.42,1.873c0,0.395,0.059,1.087,0.305,1.61l7.226,16.805l6.131-13.95
			c0.705-1.595,0.764-2.982,0.764-3.665c0-1.597-1.135-2.268-4.174-2.625c-0.07-0.22-0.186-0.44-0.186-0.695
			c0-0.22,0.115-0.625,0.186-0.788h0.879c1.34,0,2.705,0.163,5.76,0.163c0.521,0,2.66-0.105,3.666-0.105h2.105
			c0.113,0.22,0.229,0.395,0.229,0.615C646.302,213.59,646.187,214.03,646.013,214.215"/>
	</g>
	<g>
		<defs>
			<rect id="SVGID_47_" x="111.948" width="920.104" height="1024"/>
		</defs>
		<clipPath id="SVGID_48_">
			<use xlink:href="#SVGID_47_"  overflow="visible"/>
		</clipPath>
		<path id="path5893" inkscape:connector-curvature="0" clip-path="url(#SVGID_48_)" fill="#231F20" d="M564.577,266.11
			c-0.23,0-0.459-0.07-0.82-0.127c-0.66-1.712-1.479-3.32-2.174-4.163c-1.182-1.422-2.36-2.407-5.426-2.742
			c-0.636-0.058-2.289-0.058-2.82-0.058l-0.061,12.502c0,1.955,0,4.315,0.061,8.583c0.056,3.32,1.596,3.32,5.111,3.783
			c0.184,0.335,0.229,0.565,0.229,0.785c0,0.22-0.045,0.453-0.149,0.695h-1.295c-2.08,0-6.13-0.118-7.363-0.118
			c-0.892,0-5.355,0.163-7.477,0.163c-0.185-0.288-0.25-0.288-0.25-0.74c0-0.22,0.065-0.45,0.186-0.728
			c4.649-0.36,5.121-1.202,5.295-2.637c0.114-0.913,0.114-4.685,0.114-8.468v-10.395c0-1.25-0.045-2.592-0.229-3.425
			c-0.879,0-3.76,0-4.59,0.277c-2.359,0.857-3.99,2.81-5.819,6.235c-0.255,0.115-0.591,0.115-0.773,0.115
			c-0.302,0-0.521-0.115-0.705-0.29v-7.32c0-0.625,0.113-0.797,0.889-0.797c0.705,0,1.771,0.057,3.181,0.057
			c1.057,0,5.274,0.045,10.655,0.045c6.994,0,12.234-0.15,13.539-0.15c0.695,0,1.17,0,1.391,0.22c0.125,0.115,0.07,0.625,0.07,1.04
			v7.3C565.167,265.982,564.868,266.11,564.577,266.11"/>
	</g>
	<g>
		<defs>
			<rect id="SVGID_49_" x="111.948" width="920.104" height="1024"/>
		</defs>
		<clipPath id="SVGID_50_">
			<use xlink:href="#SVGID_49_"  overflow="visible"/>
		</clipPath>
		<path id="path5897" inkscape:connector-curvature="0" clip-path="url(#SVGID_50_)" fill="#231F20" d="M581.228,263.015h-0.061
			c-0.59,1.087-1.709,3.54-2.115,4.58c-1.523,3.642-2.059,4.892-2.35,5.425h8.7C584.753,271.355,582.532,266.15,581.228,263.015
			 M599.653,285.475h-2.291c-1.471,0-3.18-0.16-4.895-0.16c-2.766,0-6.301,0.16-7.645,0.16c-0.187-0.103-0.24-0.405-0.24-0.683
			c0-0.23,0.055-0.462,0.17-0.692c2.824-0.115,4.014-0.567,4.014-1.712c0-0.45-0.067-1.378-0.949-3.655
			c-0.819-2.07-1.278-3.03-1.516-3.538c-0.135-0.175-0.193-0.302-0.84-0.302h-9.174c-0.59,0.695-1.353,2.695-2.187,5.447
			c-0.176,0.67-0.176,1.365-0.176,1.598c0,0.913,0.881,2,4.121,2.047c0.174,0.345,0.24,0.578,0.24,0.808
			c0,0.163,0,0.395-0.136,0.625h-0.756c-2.176,0-2.819-0.103-5.063-0.103c-1.517,0-5.125,0.103-6.291,0.103
			c-0.115-0.23-0.174-0.348-0.174-0.567c0-0.23,0-0.403,0.174-0.75c1.721-0.335,3.365-0.845,4.176-2.047
			c0.475-0.695,2-3.32,3.709-7.38c1.602-3.782,3.602-8.557,4.48-10.57c1.188-2.462,1.596-3.263,2-4.107
			c0.645-1.27,1.305-2.52,1.596-2.982c0.229-0.335,0.82-0.51,1.1-0.51c0.484,0,1.062,0.29,1.306,0.58
			c0.301,0.507,0.59,1.075,0.704,1.422c1.646,3.885,3.011,7.368,5.125,12.235c1.052,2.44,1.597,3.99,2.767,6.56
			c0.76,1.608,1.279,2.798,2.055,4.278c1.125,2.127,2.879,2.188,4.596,2.58c0.113,0.232,0.289,0.405,0.289,0.692
			C599.942,285.07,599.837,285.255,599.653,285.475"/>
	</g>
	<g>
		<defs>
			<rect id="SVGID_51_" x="111.948" width="920.104" height="1024"/>
		</defs>
		<clipPath id="SVGID_52_">
			<use xlink:href="#SVGID_51_"  overflow="visible"/>
		</clipPath>
		<path id="path5901" inkscape:connector-curvature="0" clip-path="url(#SVGID_52_)" fill="#231F20" d="M644.763,285.473
			l-11.785-0.105h-3.301c-0.115-0.243-0.17-0.565-0.17-0.75c0-0.348,0.055-0.405,0.24-0.683c0.641-0.058,2.176,0,2.93-0.29
			c1.176-0.51,1.666-1.665,1.666-3.377v-16.573c0,0,0.055-2.972,0.055-3.84h-0.125l-6.188,13.22c-0.694,1.49-1.455,3.03-2.16,4.625
			c-1.416,3.087-2.189,5.192-2.59,6.407c-0.176,0.51-0.66,0.51-0.941,0.51c-0.369,0-0.658-0.118-0.889-0.74
			c-0.767-1.712-1.285-2.857-1.576-3.54l-9.795-20.808h-0.148v5.31l0.148,13.265c0.07,4.06,2.201,5.945,5.555,5.945
			c0.115,0.22,0.217,0.568,0.217,0.67c0,0.175-0.057,0.462-0.17,0.695c-0.221,0-0.881,0.058-1.53,0.058
			c-0.414,0-2.521-0.163-5.642-0.163c-0.879,0-2.709,0.058-4.119,0.058h-1.955c-0.104-0.243-0.17-0.473-0.17-0.693
			c0-0.115,0.064-0.405,0.17-0.625c0.775-0.172,3.666-0.867,4.246-1.435c0.591-0.565,1.125-1.771,1.125-4.568l0.056-6.685
			l-0.056-7.9c-0.061-2.335-0.291-3.18-1.485-4.002c-0.459-0.335-2.289-0.555-3.814-0.74c-0.176-0.278-0.24-0.555-0.24-0.798
			c0-0.172,0.064-0.44,0.24-0.74c1.109,0,3.17,0.115,5.17,0.115h7.125c0.23,0.185,0.431,0.29,0.59,0.695l8.712,19.188l1.594-3.818
			c1.295-3.087,3.295-7.725,6.069-12.745c0.58-1.088,1.347-2.51,1.761-3.272l11.056-0.163c0.131,0.232,0.29,0.405,0.29,0.67
			c0,0.313-0.114,0.475-0.229,0.765c-1.18,0.162-3.295,0.162-4.305,1.815c-0.347,0.52-0.59,1.03-0.59,3.387v13.66
			c0,5.263,1.364,5.772,2.014,6.165c0.291,0.232,1.99,0.405,2.951,0.405c0.16,0.278,0.221,0.45,0.221,0.753
			C644.983,285.183,644.878,285.252,644.763,285.473"/>
	</g>
	<g>
		<defs>
			<rect id="SVGID_53_" x="111.948" width="920.104" height="1024"/>
		</defs>
		<clipPath id="SVGID_54_">
			<use xlink:href="#SVGID_53_"  overflow="visible"/>
		</clipPath>
		<path id="path5905" inkscape:connector-curvature="0" clip-path="url(#SVGID_54_)" fill="#231F20" d="M563.913,310.575
			c-0.222,0-0.455-0.048-0.826-0.118c-0.646-1.712-1.479-3.308-2.17-4.175c-1.181-1.433-2.359-2.393-5.424-2.73
			c-0.65-0.058-2.281-0.058-2.826-0.058l-0.045,12.502c0,1.955,0,4.292,0.045,8.583c0.069,3.32,1.596,3.32,5.115,3.76
			c0.186,0.357,0.239,0.578,0.239,0.82c0,0.23-0.055,0.45-0.16,0.67h-1.295c-2.085,0-6.141-0.115-7.368-0.115
			c-0.865,0-5.355,0.185-7.462,0.185c-0.186-0.29-0.239-0.29-0.239-0.74c0-0.243,0.055-0.463,0.186-0.752
			c4.635-0.348,5.109-1.203,5.275-2.625c0.115-0.913,0.115-4.695,0.115-8.455v-10.408c0-1.262-0.052-2.57-0.222-3.425
			c-0.891,0-3.76,0-4.604,0.277c-2.359,0.857-3.99,2.8-5.83,6.245c-0.205,0.105-0.574,0.105-0.75,0.105
			c-0.299,0-0.545-0.105-0.694-0.277v-7.32c0-0.637,0.104-0.81,0.87-0.81c0.689,0,1.755,0.07,3.18,0.07
			c1.052,0,5.306,0.045,10.65,0.045c7,0,12.234-0.172,13.545-0.172c0.695,0,1.18,0,1.385,0.23c0.142,0.127,0.07,0.637,0.07,1.042
			v7.297C564.503,310.458,564.198,310.575,563.913,310.575"/>
	</g>
	<g>
		<defs>
			<rect id="SVGID_55_" x="111.948" width="920.104" height="1024"/>
		</defs>
		<clipPath id="SVGID_56_">
			<use xlink:href="#SVGID_55_"  overflow="visible"/>
		</clipPath>
		<path id="path5909" inkscape:connector-curvature="0" clip-path="url(#SVGID_56_)" fill="#231F20" d="M600.212,303.15
			c-2.635,0.175-4.396,1.55-5.226,3.31l-11.069,24.01c0,0-0.521,0.335-0.879,0.335c-0.336,0-0.75-0.335-1.006-1.088
			c-0.289-0.845-1.642-4.222-4.591-10.745l-3.539-7.83c-1.284-2.913-2.291-4.788-2.625-5.377c-1.307-2.163-2.881-2.335-4.649-2.615
			c-0.246-0.3-0.246-0.52-0.246-0.75c0-0.232,0-0.382,0.186-0.683h1.83c2.035,0,3.814,0.115,5.347,0.115
			c1.834,0,4.879-0.172,6.948-0.172h1.166c0.244,0.057,0.289,0.462,0.289,0.635c0,0.105,0,0.555-0.114,0.797
			c-1.41,0.118-4.404,0.058-4.404,1.875c0,0.405,0.055,1.098,0.289,1.608l7.25,16.805l6.121-13.947
			c0.688-1.585,0.75-2.973,0.75-3.667c0-1.595-1.111-2.268-4.177-2.615c-0.061-0.23-0.159-0.46-0.159-0.692
			c0-0.22,0.1-0.625,0.159-0.797h0.882c1.364,0,2.715,0.172,5.77,0.172c0.545,0,2.66-0.115,3.654-0.115h2.115
			c0.114,0.23,0.233,0.405,0.233,0.625C600.517,302.527,600.397,302.965,600.212,303.15"/>
	</g>
	<g>
		<defs>
			<rect id="SVGID_57_" x="111.948" width="920.104" height="1024"/>
		</defs>
		<clipPath id="SVGID_58_">
			<use xlink:href="#SVGID_57_"  overflow="visible"/>
		</clipPath>
		<path id="path5913" inkscape:connector-curvature="0" clip-path="url(#SVGID_58_)" fill="#231F20" d="M645.372,329.945
			l-11.785-0.117h-3.295c-0.119-0.22-0.164-0.568-0.164-0.728c0-0.335,0.045-0.405,0.23-0.695c0.658-0.07,2.174,0,2.938-0.277
			c1.181-0.52,1.654-1.652,1.654-3.377v-16.572c0,0,0.045-2.973,0.045-3.828h-0.115l-6.164,13.208
			c-0.704,1.48-1.479,3.018-2.176,4.625c-1.42,3.087-2.195,5.205-2.59,6.397c-0.187,0.52-0.65,0.52-0.949,0.52
			c-0.355,0-0.66-0.115-0.881-0.765c-0.771-1.7-1.295-2.845-1.595-3.538l-9.762-20.795h-0.184v5.32l0.184,13.253
			c0.045,4.06,2.176,5.945,5.531,5.945c0.115,0.245,0.219,0.58,0.219,0.683c0,0.185-0.033,0.462-0.164,0.695
			c-0.229,0-0.881,0.047-1.535,0.047c-0.42,0-2.524-0.162-5.635-0.162c-0.891,0-2.721,0.045-4.115,0.045h-1.971
			c-0.1-0.22-0.16-0.44-0.16-0.658c0-0.14,0.062-0.405,0.16-0.65c0.775-0.185,3.656-0.865,4.262-1.422
			c0.564-0.578,1.109-1.78,1.109-4.59l0.055-6.662l-0.055-7.9c-0.051-2.335-0.305-3.192-1.471-4.012
			c-0.476-0.325-2.3-0.567-3.84-0.728c-0.16-0.28-0.222-0.58-0.222-0.8c0-0.16,0.062-0.462,0.222-0.75
			c1.12,0,3.188,0.138,5.204,0.138h7.109c0.221,0.15,0.42,0.268,0.58,0.67l8.712,19.212l1.596-3.84
			c1.295-3.09,3.283-7.715,6.059-12.745c0.58-1.087,1.355-2.522,1.77-3.262l11.058-0.173c0.129,0.23,0.305,0.405,0.305,0.693
			c0,0.277-0.131,0.462-0.256,0.752c-1.17,0.163-3.285,0.163-4.278,1.828c-0.359,0.507-0.591,1.027-0.591,3.352v13.673
			c0,5.25,1.354,5.76,1.99,6.175c0.299,0.208,2,0.393,2.959,0.393c0.176,0.29,0.229,0.465,0.229,0.74
			C645.603,329.665,645.487,329.725,645.372,329.945"/>
	</g>
</g>
<rect x="285.868" y="160.82" fill="#231F20" width="452.264" height="238.935"/>
<g>
	<g id="Layer_8_3_">
		<path fill="#FFFAF5" d="M463.266,247.567c-11.853-29.485-9.463-63.542,7.604-91.42c21.444-15.953,59.431-16.44,82.569-3.4
			C507.481,159.83,463.266,247.567,463.266,247.567z M499.306,211.042c0,0,98.096-5.595,127.211,30.678
			c-0.271-26.563-19.686-59.22-44.227-69.81C549.596,171.065,518.926,186.025,499.306,211.042z M548.956,223.98
			c0,0,53.891,82.165,37.024,125.505c22.875-13.518,41.442-46.677,38.358-73.208C608.722,247.555,580.437,228.455,548.956,223.98z
			 M472.405,368.277c23.146,13.042,61.141,12.558,82.569-3.402c17.09-27.875,19.476-61.928,7.609-91.417
			C562.585,273.458,518.381,361.2,472.405,368.277z M526.551,309.993c0,0-98.098,5.585-127.205-30.685
			c0.271,26.563,19.689,59.228,44.232,69.808C476.251,349.962,506.94,335.005,526.551,309.993z M476.896,297.047
			c0,0-53.885-82.152-37.026-125.495c-22.87,13.51-41.445,46.665-38.349,73.205C417.123,273.475,445.423,292.575,476.896,297.047z
			 M649.924,261.825c0,76.057-61.858,137.93-137.918,137.93c-76.058,0-137.931-61.873-137.931-137.93
			c0-76.058,61.875-137.93,137.931-137.93C588.065,123.895,649.924,185.768,649.924,261.825z M637.205,261.825
			c0-69.04-56.155-125.2-125.199-125.2c-69.033,0-125.203,56.16-125.203,125.2c0,69.032,56.17,125.195,125.203,125.195
			C581.05,387.02,637.205,330.857,637.205,261.825z"/>
	</g>
</g>
</svg>
